<svg width="40" height="37" viewBox="0 0 40 37" fill="none" xmlns="http://www.w3.org/2000/svg">
<path d="M26.2513 2.25112C12.8205 -6.91459 0 14.4721 0 20.5825C0 26.6929 1.2209 33.4144 12.8204 33.4144C24.4199 33.4144 28.0828 38.3028 36.0193 34.6365C43.9557 30.9702 39.6821 11.4168 26.2513 2.25112Z" fill="url(#paint0_linear)"/>
<path d="M18.06 27.1C16.4733 27.1 15.0933 26.8133 13.92 26.24C12.7467 25.6533 11.8467 24.8267 11.22 23.76C10.5933 22.6933 10.28 21.4533 10.28 20.04C10.28 18.08 10.6467 16.34 11.38 14.82C12.1267 13.3 13.1333 12.1267 14.4 11.3C15.6667 10.46 17.0733 10.04 18.62 10.04C20.06 10.04 21.1533 10.4133 21.9 11.16C22.6467 11.8933 23.02 12.8667 23.02 14.08C23.02 14.8933 22.8733 15.5467 22.58 16.04C22.3 16.5333 21.8933 16.78 21.36 16.78C20.9867 16.78 20.6933 16.6933 20.48 16.52C20.2667 16.3467 20.16 16.0933 20.16 15.76C20.16 15.64 20.1867 15.42 20.24 15.1C20.32 14.7 20.36 14.38 20.36 14.14C20.36 12.9267 19.7133 12.32 18.42 12.32C17.54 12.32 16.7 12.6067 15.9 13.18C15.1 13.7533 14.4533 14.6 13.96 15.72C13.4667 16.8267 13.22 18.1467 13.22 19.68C13.22 21.28 13.6667 22.52 14.56 23.4C15.4533 24.2667 16.7733 24.7 18.52 24.7C19.3867 24.7 20.26 24.5933 21.14 24.38C22.0333 24.1533 23.02 23.8133 24.1 23.36C24.3 23.28 24.4667 23.24 24.6 23.24C24.8133 23.24 24.9733 23.32 25.08 23.48C25.1867 23.64 25.24 23.8467 25.24 24.1C25.24 24.9133 24.8 25.5133 23.92 25.9C22.9733 26.3133 21.9867 26.62 20.96 26.82C19.9467 27.0067 18.98 27.1 18.06 27.1ZM26.8556 27.1C26.069 27.1 25.3956 26.9067 24.8356 26.52C24.289 26.12 23.8756 25.6 23.5956 24.96C23.3156 24.32 23.1756 23.6333 23.1756 22.9C23.1756 21.8867 23.3623 20.9867 23.7356 20.2C24.1223 19.4 24.6423 18.78 25.2956 18.34C25.949 17.8867 26.6823 17.66 27.4956 17.66C28.2823 17.66 28.9556 17.86 29.5156 18.26C30.0756 18.6467 30.4956 19.16 30.7756 19.8C31.0556 20.44 31.1956 21.1267 31.1956 21.86C31.1956 22.8733 31.0023 23.78 30.6156 24.58C30.229 25.3667 29.7023 25.9867 29.0356 26.44C28.3823 26.88 27.6556 27.1 26.8556 27.1ZM27.0756 24.94C27.529 24.94 27.909 24.6933 28.2156 24.2C28.5356 23.7067 28.6956 22.9867 28.6956 22.04C28.6956 21.3067 28.5623 20.7533 28.2956 20.38C28.029 20.0067 27.709 19.82 27.3356 19.82C26.8556 19.82 26.4556 20.0667 26.1356 20.56C25.829 21.04 25.6756 21.76 25.6756 22.72C25.6756 23.48 25.809 24.04 26.0756 24.4C26.3423 24.76 26.6756 24.94 27.0756 24.94ZM33.9181 27.1C33.3315 27.1 32.8848 26.94 32.5781 26.62C32.2848 26.3 32.1381 25.88 32.1381 25.36C32.1381 24.76 32.3048 24.28 32.6381 23.92C32.9848 23.56 33.4648 23.38 34.0781 23.38C34.6648 23.38 35.1048 23.5267 35.3981 23.82C35.7048 24.1 35.8581 24.52 35.8581 25.08C35.8581 25.6933 35.6848 26.1867 35.3381 26.56C34.9915 26.92 34.5181 27.1 33.9181 27.1Z" fill="white"/>
<defs>
<linearGradient id="paint0_linear" x1="-1.21406e-07" y1="23.4783" x2="39.4988" y2="12.9834" gradientUnits="userSpaceOnUse">
<stop stop-color="#EA8342"/>
<stop offset="0.442711" stop-color="#E2675B"/>
<stop offset="1" stop-color="#E84B81"/>
</linearGradient>
</defs>
</svg>
